<?xml version="1.0" encoding="utf-8"?>
<!-- Generator: Adobe Illustrator 22.0.0, SVG Export Plug-In . SVG Version: 6.00 Build 0)  -->
<svg version="1.1" id="symbol" xmlns="http://www.w3.org/2000/svg" xmlns:xlink="http://www.w3.org/1999/xlink" x="0px" y="0px"
	 viewBox="0 0 190 170" style="enable-background:new 0 0 190 170;" xml:space="preserve">
<style type="text/css">
	.st0{fill:#FFFFFF;fill-opacity:0;}
	.st1{fill:#F74366;}
	.st2{fill:#428DF0;}
	.st3{fill:#FFFFFF;}
</style>
<rect class="st0" width="190" height="170"/>
<g>
	<path class="st1" d="M164.4,108.6L164.4,108.6c-6.9-11.8-19.1-19.4-32.5-20.4c-1.1,15.5-9.9,29.7-23.5,37.6
		c-6.2,3.6-13.2,5.7-20.4,6.2c1.5,21.2,19.3,37.9,40.8,37.9c22.6,0,40.9-18.3,40.9-40.9C170,121.9,168.1,114.8,164.4,108.6z"/>
	<path class="st2" d="M85,125.9c7.2,0,14.3-1.9,20.5-5.5c11.7-6.8,19.3-19,20.4-32.4H40.9c-14.9,0-28.9-7.2-37.7-19
		C1.1,74.2,0,79.5,0,85c0,7.2,1.9,14.3,5.5,20.5c7.3,12.6,20.9,20.5,35.5,20.5h40.9H85z"/>
	<path class="st1" d="M40.9,132.1c-14.9,0-28.9-7.2-37.7-19c-2.1,5-3.2,10.4-3.2,15.9c0,22.6,18.3,40.9,40.9,40.9
		c21.5,0,39.2-16.7,40.8-37.8H40.9z"/>
	<path class="st3" d="M5.6,61.4L5.6,61.4c6.8,11.8,19.1,19.4,32.5,20.4c1.1-15.5,9.9-29.7,23.5-37.6c6.2-3.6,13.2-5.7,20.4-6.2
		C80.4,16.7,62.6,0,41.1,0C18.4,0,0,18.4,0,40.9C0,48.2,1.9,55.3,5.6,61.4z"/>
	<path class="st2" d="M164.4,64.5c-7.3-12.6-20.9-20.5-35.5-20.5H88.1H85c-7.2,0-14.3,1.9-20.5,5.5c-11.7,6.8-19.3,19-20.4,32.4
		h84.8c14.9,0,28.9,7.2,37.7,19c2.1-5,3.2-10.4,3.2-15.9C170,77.8,168.1,70.7,164.4,64.5L164.4,64.5z"/>
	<path class="st3" d="M129.1,37.9c14.9,0,28.9,7.2,37.7,19c2.1-5,3.2-10.4,3.2-15.9c0-22.6-18.3-40.9-40.9-40.9
		C107.5,0,89.8,16.7,88.2,37.9H129.1z"/>
</g>
</svg>
