<?xml version="1.0" encoding="utf-8"?>
<!-- Generator: Adobe Illustrator 22.0.0, SVG Export Plug-In . SVG Version: 6.00 Build 0)  -->
<svg version="1.1" id="symbol" xmlns="http://www.w3.org/2000/svg" xmlns:xlink="http://www.w3.org/1999/xlink" x="0px" y="0px"
	 viewBox="0 0 190 170" style="enable-background:new 0 0 190 170;" xml:space="preserve">
<style type="text/css">
	.st0{opacity:0;fill:#FFFFFF;fill-opacity:0;}
	.st1{fill:#FFFFFF;fill-opacity:0;}
	.st2{fill:#428DF0;}
	.st3{fill:#FD0031;}
	.st4{fill:#FFFFFF;}
</style>
<rect class="st0" width="190" height="170"/>
<path class="st1" d="M164.9,64.5c3.3-6.3,5.1-13.4,5.1-20.5c0-24.3-19.7-44-43.9-44C107.3,0,91.3,11.8,85,28.3
	C78.7,11.8,62.7,0,43.9,0C19.7,0,0,19.7,0,43.9c0,7.2,1.8,14.2,5.1,20.5C1.8,70.8,0,77.8,0,85s1.8,14.2,5.1,20.5
	C1.8,111.8,0,118.9,0,126.1C0,150.3,19.7,170,43.9,170c18.7,0,34.7-11.8,41.1-28.3c6.3,16.5,22.3,28.3,41.1,28.3
	c24.2,0,43.9-19.7,43.9-43.9c0-7.2-1.8-14.2-5.1-20.5c3.3-6.3,5.1-13.4,5.1-20.5C170,77.8,168.2,70.8,164.9,64.5z M5.7,85
	c0-5.1,1-10.1,3-14.8C17,81.2,30,87.9,43.9,87.9H123c-1,12.5-8,23.9-19,30.2c-5.8,3.3-12.4,5.1-19.1,5.1H82H43.9
	c-13.6,0-26.3-7.3-33.1-19.1C7.5,98.3,5.7,91.7,5.7,85z M126.1,82.1H46.9c1-12.5,8-23.9,19-30.2c5.8-3.3,12.4-5.1,19.1-5.1h2.9h38.2
	c13.6,0,26.3,7.3,33.1,19.1l0,0c3.3,5.8,5.1,12.4,5.1,19.1c0,5.1-1,10.1-3,14.8C153,88.8,140,82.1,126.1,82.1z M126.1,5.7
	c21.1,0,38.2,17.1,38.2,38.2c0,5.1-1,10.1-3,14.8C153.1,47.7,140,41,126.1,41H88C89.5,21.3,106,5.7,126.1,5.7z M43.9,5.7
	C64,5.7,80.6,21.3,82,41.1c-6.7,0.5-13.2,2.4-19,5.8C50.3,54.3,42.2,67.5,41.2,82c-12.5-0.9-24-8-30.3-19l0,0
	c-3.3-5.8-5.1-12.4-5.1-19.1C5.7,22.9,22.9,5.7,43.9,5.7z M43.9,164.3c-21.1,0-38.2-17.1-38.2-38.2c0-5.1,1-10.1,3-14.8
	c8.2,11,21.3,17.7,35.2,17.7H82C80.5,148.7,64,164.3,43.9,164.3z M126.1,164.3c-20.1,0-36.7-15.6-38.1-35.4c6.7-0.5,13.2-2.4,19-5.8
	c12.7-7.3,20.9-20.6,21.9-35.1c12.5,0.9,24,8,30.3,19l0,0c3.3,5.8,5.1,12.4,5.1,19.1C164.3,147.1,147.1,164.3,126.1,164.3z"/>
<path class="st2" d="M159.1,107L159.1,107c-6.4-11-17.8-18.1-30.3-19c-1,14.5-9.2,27.7-21.9,35.1c-5.8,3.4-12.3,5.3-19,5.8
	c1.4,19.8,18,35.4,38.1,35.4c21.1,0,38.2-17.1,38.2-38.2C164.3,119.4,162.5,112.8,159.1,107z"/>
<path class="st3" d="M85,123.2c6.7,0,13.3-1.8,19.1-5.1c10.9-6.3,18-17.7,19-30.2H43.9c-13.9,0-27-6.7-35.2-17.7
	c-2,4.7-3,9.7-3,14.8c0,6.7,1.8,13.3,5.1,19.1c6.8,11.8,19.5,19.1,33.1,19.1h38.2H85z"/>
<path class="st3" d="M43.9,128.9c-13.9,0-27-6.7-35.2-17.7c-2,4.7-3,9.7-3,14.8c0,21.1,17.1,38.2,38.2,38.2
	c20.1,0,36.6-15.6,38.1-35.3H43.9z"/>
<path class="st4" d="M10.9,63L10.9,63c6.3,11,17.8,18.1,30.3,19c1-14.5,9.2-27.7,21.9-35.1c5.8-3.4,12.3-5.3,19-5.8
	C80.7,21.3,64.1,5.7,44,5.7C22.9,5.7,5.7,22.9,5.7,43.9C5.7,50.7,7.5,57.3,10.9,63z"/>
<path class="st2" d="M159.1,65.9c-6.8-11.8-19.5-19.1-33.1-19.1H87.9H85c-6.7,0-13.3,1.8-19.1,5.1c-10.9,6.3-18,17.7-19,30.2H126
	c13.9,0,27,6.7,35.2,17.7c2-4.7,3-9.7,3-14.8C164.3,78.3,162.5,71.7,159.1,65.9L159.1,65.9z"/>
<path class="st4" d="M126.1,41.1c13.9,0,27,6.7,35.2,17.7c2-4.7,3-9.7,3-14.8c0-21.1-17.1-38.2-38.2-38.2C106,5.7,89.5,21.3,88,41.1
	H126.1z"/>
</svg>
