<?xml version="1.0" encoding="utf-8"?>
<!-- Generator: Adobe Illustrator 22.0.0, SVG Export Plug-In . SVG Version: 6.00 Build 0)  -->
<svg version="1.1" id="logotype_1_" xmlns="http://www.w3.org/2000/svg" xmlns:xlink="http://www.w3.org/1999/xlink" x="0px"
	 y="0px" viewBox="0 0 834 166.7" style="enable-background:new 0 0 834 166.7;" xml:space="preserve">
<style type="text/css">
	.st0{fill:#428DF0;}
	.st1{fill:#FD0031;}
	.st2{fill:#FFFFFF;}
</style>
<g>
	<g>
		<path class="st0" d="M161.2,106.5L161.2,106.5c-6.7-11.6-18.7-19-31.8-20c-1.1,15.2-9.7,29.1-23,36.9c-6.1,3.6-12.9,5.6-20,6.1
			c1.5,20.8,18.9,37.2,40,37.2c22.2,0,40.2-18,40.2-40.2C166.7,119.5,164.8,112.6,161.2,106.5z"/>
		<path class="st1" d="M83.4,123.5c7,0,14-1.9,20.1-5.4c11.5-6.6,18.9-18.6,20-31.7H40.2c-14.6,0-28.4-7-37-18.6
			C1.1,72.7,0,78,0,83.4c0,7,1.9,14,5.4,20.1c7.1,12.4,20.5,20.1,34.8,20.1h40.2H83.4z"/>
		<path class="st1" d="M40.2,129.5c-14.6,0-28.4-7-37-18.6C1.1,115.8,0,121.1,0,126.5c0,22.2,18,40.2,40.2,40.2
			c21.1,0,38.5-16.4,40-37.1H40.2z"/>
		<path class="st2" d="M5.5,60.2L5.5,60.2c6.6,11.6,18.7,19,31.8,20c1.1-15.2,9.7-29.1,23-36.9c6.1-3.6,12.9-5.6,20-6.1
			C78.8,16.4,61.4,0,40.3,0C18.1,0,0,18.1,0,40.2C0,47.3,1.9,54.2,5.5,60.2z"/>
		<path class="st0" d="M161.2,63.3c-7.1-12.4-20.5-20.1-34.8-20.1h-40h-3c-7,0-14,1.9-20.1,5.4c-11.5,6.6-18.9,18.6-20,31.7h83.1
			c14.6,0,28.4,7,37,18.6c2.1-4.9,3.2-10.2,3.2-15.6C166.7,76.3,164.8,69.4,161.2,63.3L161.2,63.3z"/>
		<path class="st2" d="M126.6,37.2c14.6,0,28.4,7,37,18.6c2.1-4.9,3.2-10.2,3.2-15.6c0-22.2-18-40.2-40.2-40.2
			c-21.1-0.1-38.5,16.3-40,37.1H126.6z"/>
	</g>
	<g>
		<path class="st2" d="M256.1,23.4h25.6v48h63.7v-48h25.6v119.5h-25.6V93.6h-63.7v49.3h-25.6V23.4z"/>
		<path class="st2" d="M435,23.4h30.7l52.9,119.5h-28.2l-11.3-26.1h-58.9l-11.1,26.1h-27.5L435,23.4z M470.3,96.1l-20.8-48.5
			L429,96.1H470.3z"/>
		<path class="st2" d="M547.3,98.5L494,23.4h30.2l36.2,51.9l36.9-51.9h28.8l-53.3,75.1v44.4h-25.6V98.5z"/>
		<path class="st2" d="M654.8,23.4h30.7l52.9,119.5h-28.2L699,116.8h-58.9L629,142.9h-27.5L654.8,23.4z M690.1,96.1l-20.8-48.5
			l-20.5,48.5H690.1z"/>
		<path class="st2" d="M764.9,45.4h-43.4v-22H834v22h-43.5v97.5h-25.6V45.4z"/>
	</g>
</g>
</svg>
