<?xml version="1.0" encoding="utf-8"?>
<!-- Generator: Adobe Illustrator 22.0.0, SVG Export Plug-In . SVG Version: 6.00 Build 0)  -->
<svg version="1.1" id="symbol" xmlns="http://www.w3.org/2000/svg" xmlns:xlink="http://www.w3.org/1999/xlink" x="0px" y="0px"
	 viewBox="0 0 200 258" style="enable-background:new 0 0 200 258;" xml:space="preserve">
<style type="text/css">
	.st0{fill:#FFFFFF;}
</style>
<g>
	<g>
		<g>
			<path class="st0" d="M3.9,196.7h7.7V211h18.9v-14.2h7.6v35.5h-7.6v-14.7H11.5v14.7H3.9V196.7z"/>
			<path class="st0" d="M57.1,196.7h9.2l15.7,35.5h-8.4l-3.3-7.7H52.7l-3.3,7.7h-8.2L57.1,196.7z M67.6,218.3l-6.2-14.4l-6.1,14.4
				H67.6z"/>
			<path class="st0" d="M90.4,219.1l-15.8-22.3h9l10.8,15.4l11-15.4h8.6l-15.8,22.3v13.1h-7.7V219.1z"/>
			<path class="st0" d="M122.4,196.7h9.2l15.8,35.6H139l-3.3-7.7h-17.6l-3.3,7.7h-8.2L122.4,196.7z M132.9,218.3l-6.2-14.4
				l-6.1,14.4H132.9z"/>
			<path class="st0" d="M155.2,203.2h-12.9v-6.6h33.5v6.6h-13v29h-7.7V203.2z"/>
		</g>
	</g>
	<path class="st0" d="M174.6,68.3c3.5-6.7,5.4-14.2,5.4-21.7C180,20.9,159.1,0,133.6,0C113.7,0,96.7,12.5,90,30
		C83.3,12.5,66.4,0,46.4,0C20.9,0,0,20.9,0,46.4c0,7.7,1.9,15,5.4,21.7C1.9,75,0,82.3,0,90s1.9,15,5.4,21.7
		C1.9,118.3,0,125.9,0,133.5C0,159.1,20.9,180,46.4,180c19.8,0,36.7-12.5,43.6-30c6.7,17.5,23.6,30,43.6,30
		c25.6,0,46.4-20.9,46.4-46.4c0-7.7-1.9-15-5.4-21.7c3.5-6.7,5.4-14.2,5.4-21.7C180,82.3,178.1,75,174.6,68.3z M6,90
		c0-5.4,1.1-10.7,3.2-15.7C18,85.9,31.8,93.1,46.4,93.1h83.8c-1.1,13.2-8.5,25.3-20.2,31.9c-6.1,3.5-13.1,5.4-20.3,5.4h-3.1H46.4
		c-14.4,0-27.8-7.7-35-20.2C7.9,104,6,97.1,6,90z M133.6,86.9H49.7c1.1-13.2,8.5-25.3,20.2-32c6.1-3.5,13.1-5.4,20.3-5.4h3.1h40.4
		c14.4,0,27.8,7.7,35,20.2l0,0C172.1,76,174,83,174,90.1c0,5.4-1.1,10.7-3.1,15.7C162,94.1,148.2,86.9,133.6,86.9z M133.6,6
		C155.9,6,174,24.1,174,46.4c0,5.4-1.1,10.7-3.1,15.7c-8.6-11.6-22.6-18.7-37.3-18.7H93.2C94.8,22.6,112.2,6,133.6,6z M46.4,6
		c21.2,0,38.9,16.6,40.3,37.4C79.6,44,72.8,46,66.6,49.6c-13.4,7.8-22,21.8-23,37.2c-13.2-1-25.4-8.5-32-20.2l0,0
		C8,60.5,6.1,53.5,6.1,46.3C6,24.2,24.2,6,46.4,6z M46.4,174C24.1,174,6,155.9,6,133.6c0-5.4,1.1-10.7,3.2-15.7
		c8.6,11.6,22.6,18.7,37.3,18.7h40.3C85.2,157.4,67.8,174,46.4,174z M133.6,174c-21.2,0-38.9-16.6-40.3-37.4
		c7.1-0.5,14-2.5,20.2-6.1c13.4-7.7,22.1-21.8,23.2-37.2c13.2,1,25.4,8.5,32,20.2l0,0c3.5,6.1,5.4,13.1,5.4,20.2
		C174,155.8,155.8,174,133.6,174z"/>
</g>
</svg>
