<?xml version="1.0" encoding="utf-8"?>
<!-- Generator: Adobe Illustrator 22.0.0, SVG Export Plug-In . SVG Version: 6.00 Build 0)  -->
<svg version="1.1" id="logotype_1_" xmlns="http://www.w3.org/2000/svg" xmlns:xlink="http://www.w3.org/1999/xlink" x="0px"
	 y="0px" viewBox="0 0 600 181.3" style="enable-background:new 0 0 600 181.3;" xml:space="preserve">
<style type="text/css">
	.st0{fill:#FFFFFF;}
	.st1{fill:#4A89F3;}
	.st2{fill:#F74366;}
</style>
<g>
	<g>
		<path class="st0" d="M213.3,32.3L246.6,16v45c4.1-5.8,11.2-12.4,22.6-12.4c14.6,0,20.2,8,25,28.5l7.1,31.2
			c3.7,16.5,8.3,23.1,12.6,26.5h-34.5l-12.6-58.9c-2.4-11-3.4-15-8.7-16c-4.8-0.8-8.1,3.6-11.5,7.7v37.5c0,17,4.1,26.5,8,29.7h-34.5
			l1-76.4c0.2-17-5.1-23.6-7.8-25.5V32.3z"/>
		<path class="st0" d="M343.2,65.5c-3.6,3.7-7.3,11.9-7.3,25.6c0,15.1,7.6,28.9,21.7,28.7c2.5,0,5.3-0.5,8-1.5
			c-8-22.9-18.2-53.1-23.6-59.4c-3.7-4.4-9.2-5.1-13.2-4.4l-0.2-0.5c5.8-3.4,12.2-5.4,19.2-5.4c10.2,0,21.6,4.8,26.7,18
			c5.9,15.3,13.1,35.3,19.7,53c2.7,7.3,6.3,12.9,8.7,15.3h-31.4l-4.8-13.6c-4.8,10-12.6,14.9-24.1,14.9c-18,0-30.7-12.9-30.7-29.9
			C311.8,86.8,324.5,72.8,343.2,65.5z"/>
		<path class="st0" d="M383.2,152c20.9,0,32.8-2,40.4-12.1l-26.8-65.2c-7-16.8-11.4-22.7-13.7-24.1v-0.7h37.2v0.7
			c-0.5,0.3-1.4,2-1.4,5.3c0,2.9,0.7,6.6,2.9,12.2l15.3,40.7l11.2-22.6c3.4-7,4.9-13.8,4.9-19.4c0-9-0.9-13.4-3.1-16.3v-0.7h25v0.7
			c-4.6,5.3-10.9,15.3-19,31.6l-27.7,55.5c-6.6,13.4-18.5,36.3-45.2,43.6L383.2,152L383.2,152z"/>
		<path class="st0" d="M499.2,65.5c-3.6,3.7-7.3,11.9-7.3,25.6c0,15.1,7.6,28.9,21.7,28.7c2.5,0,5.3-0.5,8-1.5
			c-8-22.9-18.2-53.1-23.6-59.4c-3.7-4.4-9.2-5.1-13.2-4.4l-0.2-0.5c5.8-3.4,12.2-5.4,19.2-5.4c10.2,0,21.6,4.8,26.7,18
			c5.9,15.3,13.1,35.3,19.7,53c2.7,7.3,6.3,12.9,8.7,15.3h-31.4l-4.8-13.6c-4.8,10-12.6,14.9-24.1,14.9c-18,0-30.7-12.9-30.7-29.9
			C467.8,86.8,480.5,72.8,499.2,65.5z"/>
		<path class="st0" d="M600,49.6v4.9h-16.3V102c0,21.9,8.1,29.7,16.3,31.4v1.4c-19.4,0-41.8-4.8-41.8-37.9V54.5H548v-4.9
			c13.1-1.5,29.4-11.5,34.3-23.8h1.4v23.8H600z"/>
	</g>
	<g>
		<path class="st0" d="M90,0c0,11.6-4.3,22.8-12,31.7c-7.7,8.8-18.4,14.7-30.2,16.6v0.6h52.3c13.3,0,26.1-5.2,35.6-14.3
			c9.4-9.2,14.7-21.6,14.7-34.6C150.4,0,90,0,90,0z"/>
		<path class="st1" d="M30.2,107.8c10.1-5.8,21.9-7.7,33.4-5.5c11.5,2.3,22,8.6,29.5,17.9l0.5-0.3L67.5,74.6
			C60.8,63,50,54.5,37.3,50.9C24.7,47.3,11.2,49,0,55.5L30.2,107.8z"/>
		<path class="st2" d="M153.5,105.7c-10.1-5.8-17.7-15.1-21.4-26.2c-3.8-11.1-3.5-23.3,0.7-34.5l-0.5-0.3L106.1,90
			c-6.7,11.6-8.6,25.2-5.4,38s11.4,23.6,22.6,30.1L153.5,105.7z"/>
	</g>
</g>
</svg>
