<?xml version="1.0" encoding="utf-8"?>
<!-- Generator: Adobe Illustrator 22.0.0, SVG Export Plug-In . SVG Version: 6.00 Build 0)  -->
<svg version="1.1" id="symbol" xmlns="http://www.w3.org/2000/svg" xmlns:xlink="http://www.w3.org/1999/xlink" x="0px" y="0px"
	 viewBox="0 0 160 164.7" style="enable-background:new 0 0 160 164.7;" xml:space="preserve">
<style type="text/css">
	.st0{fill:#F74366;}
</style>
<g>
	<path class="st0" d="M93.8,0c0,12.1-4.4,23.8-12.5,33c-8.1,9.2-19.2,15.4-31.5,17.3V51h54.6c13.9,0,27.2-5.4,37.1-14.9
		c9.8-9.6,15.4-22.5,15.4-36.1H93.8z"/>
	<path class="st0" d="M31.5,112.3c10.5-6,22.8-8.1,34.9-5.7c12,2.4,22.9,9,30.8,18.6l0.5-0.3L70.4,77.7c-7-12-18.3-20.9-31.5-24.6
		C25.7,49.3,11.7,51,0,57.8L31.5,112.3z"/>
	<path class="st0" d="M160,110.2c-10.5-6.1-18.4-15.8-22.4-27.3c-4-11.6-3.7-24.3,0.8-35.9l-0.5-0.3l-27.3,47.2
		c-7,12-9,26.3-5.6,39.6c3.4,13.3,11.8,24.6,23.5,31.3L160,110.2z"/>
</g>
</svg>
