<?xml version="1.0" encoding="utf-8"?>
<!-- Generator: Adobe Illustrator 22.0.0, SVG Export Plug-In . SVG Version: 6.00 Build 0)  -->
<svg version="1.1" id="symbol" xmlns="http://www.w3.org/2000/svg" xmlns:xlink="http://www.w3.org/1999/xlink" x="0px" y="0px"
	 viewBox="0 0 200 258" style="enable-background:new 0 0 200 258;" xml:space="preserve">
<style type="text/css">
	.st0{fill:#FFFFFF;}
</style>
<g>
	<g>
		<g>
			<path class="st0" d="M3.8,200.2h7.5v13.9h18.5v-13.9h7.5v34.7h-7.5v-14.3H11.3v14.3H3.8V200.2z"/>
			<path class="st0" d="M55.8,200.2h9l15.3,34.7h-8.2l-3.3-7.6H51.5l-3.3,7.6h-8L55.8,200.2z M66.1,221.3L60,207.2l-6,14.1H66.1z"/>
			<path class="st0" d="M88.4,222L73,200.2h8.8l10.6,15l10.7-15h8.4L95.9,222v12.8h-7.5V222z"/>
			<path class="st0" d="M119.7,200.2h9l15.4,34.8h-8.2l-3.3-7.6h-17.2l-3.3,7.6h-8L119.7,200.2z M130,221.3l-6.1-14.1l-6,14.1H130z"
				/>
			<path class="st0" d="M151.7,206.5h-12.6v-6.4h32.7v6.4h-12.7v28.3h-7.5V206.5z"/>
		</g>
	</g>
	<path class="st0" d="M170.7,66.8c3.4-6.5,5.3-13.9,5.3-21.2C176,20.4,155.6,0,130.6,0c-19.4,0-36,12.2-42.6,29.3
		C81.5,12.2,64.9,0,45.4,0C20.4,0,0,20.4,0,45.4c0,7.5,1.8,14.7,5.3,21.2C1.8,73.3,0,80.5,0,88s1.8,14.7,5.3,21.2
		C1.8,115.7,0,123.1,0,130.5C0,155.6,20.4,176,45.4,176c19.4,0,35.9-12.2,42.6-29.3c6.5,17.1,23.1,29.3,42.6,29.3
		c25.1,0,45.4-20.4,45.4-45.4c0-7.5-1.8-14.7-5.3-21.2c3.4-6.5,5.3-13.9,5.3-21.2C176,80.5,174.2,73.3,170.7,66.8z M5.9,88
		C5.9,82.7,7,77.5,9,72.7C17.6,84,31.1,91,45.4,91h81.9c-1.1,12.9-8.3,24.7-19.7,31.2c-6,3.4-12.8,5.3-19.8,5.3h-3H45.4
		c-14.1,0-27.2-7.6-34.2-19.8C7.7,101.7,5.9,95,5.9,88z M130.6,85h-82c1.1-12.9,8.3-24.7,19.7-31.2c6-3.4,12.8-5.3,19.8-5.3h3h39.5
		c14.1,0,27.2,7.6,34.2,19.8l0,0c3.4,6,5.3,12.8,5.3,19.8c0,5.3-1.1,10.5-3.1,15.3C158.4,92,144.9,85,130.6,85z M130.6,5.9
		c21.8,0,39.5,17.7,39.5,39.5c0,5.3-1.1,10.5-3.1,15.3c-8.4-11.4-22.1-18.3-36.4-18.3H91.2C92.7,22.1,109.7,5.9,130.6,5.9z
		 M45.4,5.9c20.8,0,38,16.2,39.4,36.6c-7,0.5-13.6,2.5-19.7,6C52,56.1,43.6,69.8,42.6,84.8c-12.9-1-24.8-8.3-31.3-19.7l0,0
		C7.8,59.1,6,52.3,6,45.3C5.9,23.7,23.7,5.9,45.4,5.9z M45.4,170.1c-21.8,0-39.5-17.7-39.5-39.5c0-5.3,1.1-10.5,3.1-15.3
		c8.4,11.4,22.1,18.3,36.4,18.3h39.4C83.3,153.9,66.3,170.1,45.4,170.1z M130.6,170.1c-20.8,0-38-16.2-39.4-36.6
		c7-0.5,13.6-2.5,19.7-6c13.1-7.6,21.6-21.3,22.7-36.3c12.9,1,24.8,8.3,31.3,19.7l0,0c3.4,6,5.3,12.8,5.3,19.8
		C170.1,152.3,152.3,170.1,130.6,170.1z"/>
</g>
</svg>
