<?xml version="1.0" encoding="utf-8"?>
<!-- Generator: Adobe Illustrator 22.0.0, SVG Export Plug-In . SVG Version: 6.00 Build 0)  -->
<svg version="1.1" id="symbol" xmlns="http://www.w3.org/2000/svg" xmlns:xlink="http://www.w3.org/1999/xlink" x="0px" y="0px"
	 viewBox="0 0 200 258" style="enable-background:new 0 0 200 258;" xml:space="preserve">
<style type="text/css">
	.st0{fill:#FFFFFF;}
</style>
<g>
	<g>
		<path class="st0" d="M193.4,127.7L193.4,127.7c-8.1-13.9-22.4-22.8-38.2-24c-1.3,18.3-11.6,34.9-27.6,44.3
			c-7.3,4.3-15.5,6.7-24,7.3c1.8,25,22.7,44.6,48,44.6c26.6,0,48.2-21.6,48.2-48.2C200,143.4,197.7,135.1,193.4,127.7z"/>
		<path class="st0" d="M100,148.2c8.4,0,16.8-2.3,24.1-6.4c13.7-7.9,22.7-22.3,24-38.1H48.2c-17.5,0-34-8.4-44.4-22.3
			C1.3,87.3,0,93.6,0,100c0,8.4,2.3,16.8,6.4,24.1C15,139,31,148.2,48.2,148.2h48.2H100z"/>
		<path class="st0" d="M48.2,155.4c-17.5,0-34-8.4-44.4-22.3C1.3,139,0,145.3,0,151.7c0,26.6,21.6,48.2,48.2,48.2
			c25.3,0,46.2-19.7,48-44.5H48.2z"/>
		<path class="st0" d="M6.6,72.3L6.6,72.3c7.9,13.9,22.4,22.8,38.2,24C46,77.9,56.4,61.3,72.4,52c7.3-4.3,15.5-6.7,24-7.3
			C94.6,19.7,73.6,0,48.3,0C21.7,0,0,21.7,0,48.2C0,56.7,2.3,65.1,6.6,72.3z"/>
		<path class="st0" d="M193.4,75.9c-8.6-14.9-24.6-24.1-41.7-24.1h-48H100c-8.4,0-16.8,2.3-24.1,6.4c-13.7,7.9-22.7,22.3-24,38.1
			h99.7c17.5,0,34,8.4,44.4,22.3c2.5-5.9,3.8-12.2,3.8-18.7C200,91.6,197.7,83.2,193.4,75.9L193.4,75.9z"/>
		<path class="st0" d="M151.8,44.6c17.5,0,34,8.4,44.4,22.3c2.5-5.9,3.8-12.2,3.8-18.7c0-26.6-21.6-48.2-48.2-48.2
			c-25.3-0.1-46.2,19.5-48,44.5H151.8z"/>
	</g>
	<g>
		<path class="st0" d="M4.3,218.6h8.5v15.8h21v-15.8h8.5V258h-8.5v-16.3h-21V258H4.3V218.6z"/>
		<path class="st0" d="M63.4,218.6h10.2L91,258h-9.3l-3.7-8.6H58.5l-3.7,8.6h-9.1L63.4,218.6z M75.1,242.6l-6.9-16l-6.8,16H75.1z"/>
		<path class="st0" d="M100.5,243.4l-17.6-24.8h10l12,17.1l12.2-17.1h9.5L109,243.4V258h-8.5V243.4z"/>
		<path class="st0" d="M136,218.6h10.2l17.5,39.5h-9.3l-3.7-8.6h-19.5l-3.7,8.6h-9.1L136,218.6z M147.7,242.6l-6.9-16l-6.8,16H147.7
			z"/>
		<path class="st0" d="M172.4,225.8h-14.3v-7.3h37.2v7.3h-14.4V258h-8.5V225.8z"/>
	</g>
</g>
</svg>
