<?xml version="1.0" encoding="utf-8"?>
<!-- Generator: Adobe Illustrator 22.0.0, SVG Export Plug-In . SVG Version: 6.00 Build 0)  -->
<svg version="1.1" id="symbol" xmlns="http://www.w3.org/2000/svg" xmlns:xlink="http://www.w3.org/1999/xlink" x="0px" y="0px"
	 viewBox="0 0 200 258" style="enable-background:new 0 0 200 258;" xml:space="preserve">
<style type="text/css">
	.st0{fill:#FFFFFF;}
</style>
<g>
	<g>
		<path class="st0" d="M4.3,218.6h8.5v15.8h21v-15.8h8.5V258h-8.5v-16.3h-21V258H4.3V218.6z"/>
		<path class="st0" d="M63.4,218.6h10.2L91,258h-9.3l-3.7-8.6H58.5l-3.7,8.6h-9.1L63.4,218.6z M75.1,242.6l-6.9-16l-6.8,16H75.1z"/>
		<path class="st0" d="M100.5,243.4l-17.6-24.8h10l12,17.1l12.2-17.1h9.5L109,243.4V258h-8.5V243.4z"/>
		<path class="st0" d="M136,218.6h10.2l17.5,39.5h-9.3l-3.7-8.6h-19.5l-3.7,8.6h-9.1L136,218.6z M147.7,242.6l-6.9-16l-6.8,16H147.7
			z"/>
		<path class="st0" d="M172.4,225.8h-14.3v-7.3h37.2v7.3h-14.4V258h-8.5V225.8z"/>
	</g>
</g>
<path class="st0" d="M194,75.9c3.9-7.4,6-15.8,6-24.1C200,23.2,176.8,0,148.4,0c-22.1,0-40.9,13.9-48.4,33.3
	C92.6,13.9,73.8,0,51.6,0C23.2,0,0,23.2,0,51.6c0,8.5,2.1,16.7,6,24.1C2.1,83.3,0,91.5,0,100s2.1,16.7,6,24.1
	c-3.9,7.4-6,15.8-6,24.2C0,176.8,23.2,200,51.6,200c22,0,40.8-13.9,48.4-33.3c7.4,19.4,26.2,33.3,48.4,33.3
	c28.5,0,51.6-23.2,51.6-51.6c0-8.5-2.1-16.7-6-24.1c3.9-7.4,6-15.8,6-24.1C200,91.5,197.9,83.3,194,75.9z M6.7,100
	c0-6,1.2-11.9,3.5-17.4c9.8,12.9,25.1,20.8,41.4,20.8h93.1c-1.2,14.7-9.4,28.1-22.4,35.5c-6.8,3.9-14.6,6-22.5,6h-3.4H51.6
	c-16,0-30.9-8.6-38.9-22.5C8.8,115.6,6.7,107.9,6.7,100z M148.4,96.6H55.2c1.2-14.7,9.4-28.1,22.4-35.5c6.8-3.9,14.6-6,22.5-6h3.4
	h44.9c16,0,30.9,8.6,38.9,22.5l0,0c3.9,6.8,6,14.6,6,22.5c0,6-1.2,11.9-3.5,17.4C180,104.5,164.7,96.6,148.4,96.6z M148.4,6.7
	c24.8,0,44.9,20.1,44.9,44.9c0,6-1.2,11.9-3.5,17.4c-9.6-12.9-25.1-20.8-41.4-20.8h-44.8C105.3,25.1,124.7,6.7,148.4,6.7z M51.6,6.7
	c23.6,0,43.2,18.4,44.8,41.6c-7.9,0.6-15.5,2.8-22.4,6.8c-14.9,8.7-24.5,24.2-25.6,41.3c-14.7-1.1-28.2-9.4-35.6-22.4l0,0
	c-3.9-6.8-6-14.6-6-22.5C6.7,26.9,26.9,6.7,51.6,6.7z M51.6,193.3c-24.8,0-44.9-20.1-44.9-44.9c0-6,1.2-11.9,3.5-17.4
	c9.6,12.9,25.1,20.8,41.4,20.8h44.8C94.7,174.9,75.3,193.3,51.6,193.3z M148.4,193.3c-23.6,0-43.2-18.4-44.8-41.6
	c7.9-0.6,15.5-2.8,22.4-6.8c14.9-8.6,24.6-24.2,25.8-41.3c14.7,1.1,28.2,9.4,35.6,22.4l0,0c3.9,6.8,6,14.6,6,22.5
	C193.3,173.1,173.1,193.3,148.4,193.3z"/>
</svg>
