<?xml version="1.0" encoding="utf-8"?>
<!-- Generator: Adobe Illustrator 22.0.0, SVG Export Plug-In . SVG Version: 6.00 Build 0)  -->
<svg version="1.1" id="Layer_1" xmlns="http://www.w3.org/2000/svg" xmlns:xlink="http://www.w3.org/1999/xlink" x="0px" y="0px"
	 viewBox="0 0 1000 427.6" style="enable-background:new 0 0 1000 427.6;" xml:space="preserve">
<style type="text/css">
	.st0{fill:#FFFFFF;}
</style>
<g>
	<path class="st0" d="M0,42.1L86,0v116.3c10.5-14.9,29-32,58.4-32c37.8,0,52.2,20.6,64.5,73.7l18.4,80.8
		c9.7,42.6,21.5,59.7,32.5,68.5h-89.1L138.3,155c-6.1-28.5-8.8-38.7-22.4-41.3c-12.3-2.2-21.1,9.3-29.9,19.9v97
		c0,43.9,10.5,68.5,20.6,76.8H17.6l2.6-197.5C20.6,65.8,7,48.7,0,43.9V42.1z"/>
	<path class="st0" d="M335.8,128.2c-9.2,9.7-18.9,30.7-18.9,66.3c0,39.1,19.8,74.6,56.2,74.2c6.6,0,13.6-1.3,20.6-4
		c-20.6-59.3-47-137.4-61-153.6c-9.7-11.4-23.7-13.2-34.2-11.4l-0.4-1.3c14.9-8.8,31.6-14,49.6-14c26.3,0,55.8,12.3,68.9,46.5
		c15.4,39.5,33.8,91.3,50.9,137c7,18.9,16.2,33.4,22.4,39.5h-81.2l-12.3-35.1c-12.3,25.9-32.5,38.6-62.3,38.6
		c-46.5,0-79.5-33.4-79.5-77.3C254.6,183.1,287.5,147.1,335.8,128.2z"/>
	<path class="st0" d="M439.4,351.6c54,0,84.7-5.3,104.5-31.2l-69.4-168.6c-18-43.5-29.4-58.8-35.6-62.3v-1.8h96.1v1.8
		c-1.3,0.9-3.5,5.3-3.5,13.6c0,7.5,1.8,17.1,7.5,31.6l39.6,105.4l29-58.4c8.8-18,12.7-35.6,12.7-50c0-23.3-2.2-34.7-7.9-42.1v-1.8
		h64.5v1.8c-11.9,13.6-28.1,39.5-49.2,81.7l-71.6,143.5c-17.1,34.7-47.8,93.9-116.8,112.8V351.6z"/>
	<path class="st0" d="M739.2,128.2c-9.2,9.7-18.9,30.7-18.9,66.3c0,39.1,19.8,74.6,56.2,74.2c6.6,0,13.6-1.3,20.6-4
		c-20.6-59.3-47-137.4-61-153.6c-9.7-11.4-23.7-13.2-34.2-11.4l-0.4-1.3c14.9-8.8,31.6-14,49.6-14c26.3,0,55.8,12.3,68.9,46.5
		c15.4,39.5,33.8,91.3,50.9,137c7,18.9,16.2,33.4,22.4,39.5h-81.2l-12.3-35.1c-12.3,25.9-32.5,38.6-62.3,38.6
		c-46.5,0-79.5-33.4-79.5-77.3C658,183.1,691,147.1,739.2,128.2z"/>
	<path class="st0" d="M1000,86.9v12.7h-42.1v122.9c0,56.6,21.1,76.8,42.1,81.2v3.5c-50,0-108-12.3-108-97.9V99.7h-26.3V86.9
		c33.8-4,75.9-29.9,88.7-61.5h3.5v61.5H1000z"/>
</g>
</svg>
